<svg width="21" height="20" viewBox="0 0 21 20" fill="none" xmlns="http://www.w3.org/2000/svg">
<path d="M18.1929 3.2714L18.1935 3.27199C18.6967 3.7607 19.0989 4.34185 19.3777 4.98279C19.6667 5.64969 19.8135 6.35528 19.8115 7.08214V7.08428C19.8115 7.76517 19.6715 8.49119 19.3801 9.24779L19.3794 9.2495C19.138 9.88088 18.7806 10.551 18.3149 11.2413C17.5781 12.332 16.5511 13.4893 15.2538 14.6786C13.0974 16.6539 10.9621 18.0187 10.8844 18.0681L10.8842 18.0682L10.3235 18.4253C10.3235 18.4253 10.3235 18.4253 10.3234 18.4254C10.3222 18.4261 10.3197 18.4272 10.3158 18.4272C10.3118 18.4272 10.3094 18.4261 10.3081 18.4254C10.3081 18.4253 10.3081 18.4253 10.308 18.4253L9.74733 18.0682L9.7474 18.0681L9.73552 18.0608C9.73586 18.0611 9.73567 18.0609 9.73488 18.0604C9.73234 18.0588 9.72369 18.0534 9.70737 18.043C9.68787 18.0305 9.66053 18.0128 9.62583 17.9902C9.55647 17.9449 9.45853 17.8802 9.33604 17.7974C9.09103 17.6318 8.74868 17.3944 8.34105 17.0964C7.52465 16.4996 6.45237 15.664 5.37782 14.6786L5.37774 14.6786C4.08034 13.4892 3.05323 12.3318 2.31636 11.2409C1.85167 10.552 1.49584 9.88129 1.25132 9.24742C0.960021 8.49094 0.820068 7.76506 0.820068 7.08428C0.820068 6.35585 0.967265 5.64946 1.25631 4.98248C1.53417 4.34148 1.93614 3.7605 2.43971 3.27262L2.44073 3.27163C2.94846 2.77783 3.53901 2.3903 4.19545 2.12043L4.19626 2.12009C4.87515 1.84007 5.59383 1.69862 6.33917 1.69862C7.37244 1.69862 8.37882 1.97953 9.25235 2.50869L9.25238 2.5087C9.46137 2.63529 9.65932 2.77397 9.84651 2.92473L10.317 3.30365L10.7874 2.92473C10.9746 2.77397 11.1725 2.63529 11.3815 2.5087L11.3816 2.50869C12.2551 1.97953 13.2615 1.69862 14.2947 1.69863L14.2965 1.69862C15.0314 1.69694 15.7592 1.84025 16.4376 2.12009L16.4386 2.12049C17.0925 2.38916 17.6881 2.77996 18.1929 3.2714ZM10.9931 1.8674L10.9932 1.8676L10.9931 1.8674Z" fill="#6251DD" stroke="#6251DD" stroke-width="1.5"/>
</svg>
